name ./resultDataOpenSim/trcMotMarkerGrf/sub10/grf-15-04.mot
datacolumns 19
datarows 25
range 1.00000000 1.09600000
endheader

                time	     ground_force_vx	     ground_force_vy	     ground_force_vz	     ground_force_px	     ground_force_py	     ground_force_pz	   l_ground_force_vx	   l_ground_force_vy	   l_ground_force_vz	   l_ground_force_px	   l_ground_force_py	   l_ground_force_pz	     ground_torque_x	     ground_torque_y	     ground_torque_z	   l_ground_torque_x	   l_ground_torque_y	   l_ground_torque_z	
          1.00000000	          0.00000000	          0.00000000	          0.00000000	          0.00000000	          0.00000000	          0.00000000	        128.06659873	        736.18596419	        -26.32965347	          0.10096535	         -0.09999600	         -0.06859224	          0.00000000	          0.00000000	          0.00000000	          0.00000000	         -1.65251733	          0.00000000	
          1.00400000	          0.00000000	          0.00000000	          0.00000000	          0.00000000	          0.00000000	          0.00000000	        131.11460649	        678.68635332	        -30.14568506	          0.10180698	         -0.09999568	         -0.06751973	          0.00000000	          0.00000000	          0.00000000	          0.00000000	         -1.59639019	          0.00000000	
          1.00800000	          0.00000000	          0.00000000	          0.00000000	          0.00000000	          0.00000000	          0.00000000	        131.79277955	        620.37097449	        -33.35371499	          0.10268436	         -0.09999505	         -0.06644391	          0.00000000	          0.00000000	          0.00000000	          0.00000000	         -1.59416931	          0.00000000	
          1.01200000	          0.00000000	          0.00000000	          0.00000000	          0.00000000	          0.00000000	          0.00000000	        130.13531496	        561.81918348	        -35.70068157	          0.10362929	         -0.09999500	         -0.06539697	          0.00000000	          0.00000000	          0.00000000	          0.00000000	         -1.62878815	          0.00000000	
          1.01600000	          0.00000000	          0.00000000	          0.00000000	          0.00000000	          0.00000000	          0.00000000	        126.33947678	        503.52299255	        -37.03746590	          0.10465376	         -0.09999500	         -0.06440716	          0.00000000	          0.00000000	          0.00000000	          0.00000000	         -1.68088603	          0.00000000	
          1.02000000	          0.00000000	          0.00000000	          0.00000000	          0.00000000	          0.00000000	          0.00000000	        120.66297916	        445.90194098	        -37.34503428	          0.10575459	         -0.09999500	         -0.06350930	          0.00000000	          0.00000000	          0.00000000	          0.00000000	         -1.73192886	          0.00000000	
          1.02400000	          0.00000000	          0.00000000	          0.00000000	          0.00000000	          0.00000000	          0.00000000	        113.36570999	        389.34763033	        -36.70432871	          0.10691985	         -0.09999437	         -0.06274728	          0.00000000	          0.00000000	          0.00000000	          0.00000000	         -1.76657412	          0.00000000	
          1.02800000	          0.00000000	          0.00000000	          0.00000000	          0.00000000	          0.00000000	          0.00000000	        104.71133849	        334.32616246	        -35.23523409	          0.10814217	         -0.09999477	         -0.06214369	          0.00000000	          0.00000000	          0.00000000	          0.00000000	         -1.77379322	          0.00000000	
          1.03200000	          0.00000000	          0.00000000	          0.00000000	          0.00000000	          0.00000000	          0.00000000	         94.97724293	        281.46370233	        -33.04066956	          0.10945711	         -0.09999500	         -0.06166898	          0.00000000	          0.00000000	          0.00000000	          0.00000000	         -1.74685368	          0.00000000	
          1.03600000	          0.00000000	          0.00000000	          0.00000000	          0.00000000	          0.00000000	          0.00000000	         84.44479586	        231.55892067	        -30.18648524	          0.11092539	         -0.09999500	         -0.06128602	          0.00000000	          0.00000000	          0.00000000	          0.00000000	         -1.68272072	          0.00000000	
          1.04000000	          0.00000000	          0.00000000	          0.00000000	          0.00000000	          0.00000000	          0.00000000	         73.39020445	        185.55212411	        -26.73117630	          0.11259142	         -0.09999500	         -0.06096625	          0.00000000	          0.00000000	          0.00000000	          0.00000000	         -1.58150090	          0.00000000	
          1.04400000	          0.00000000	          0.00000000	          0.00000000	          0.00000000	          0.00000000	          0.00000000	         62.09811574	        144.44092514	        -22.77860056	          0.11442255	         -0.09999500	         -0.06065048	          0.00000000	          0.00000000	          0.00000000	          0.00000000	         -1.44615615	          0.00000000	
          1.04800000	          0.00000000	          0.00000000	          0.00000000	          0.00000000	          0.00000000	          0.00000000	         50.89783609	        109.07115950	        -18.50527155	          0.11626614	         -0.09999500	         -0.06024342	          0.00000000	          0.00000000	          0.00000000	          0.00000000	         -1.28224122	          0.00000000	
          1.05200000	          0.00000000	          0.00000000	          0.00000000	          0.00000000	          0.00000000	          0.00000000	         40.18076223	         79.84619071	        -14.13759096	          0.11785194	         -0.09999516	         -0.05967872	          0.00000000	          0.00000000	          0.00000000	          0.00000000	         -1.09729077	          0.00000000	
          1.05600000	          0.00000000	          0.00000000	          0.00000000	          0.00000000	          0.00000000	          0.00000000	         30.34302627	         56.54711433	         -9.89535656	          0.11883224	         -0.09999563	         -0.05895888	          0.00000000	          0.00000000	          0.00000000	          0.00000000	         -0.89976111	          0.00000000	
          1.06000000	          0.00000000	          0.00000000	          0.00000000	          0.00000000	          0.00000000	          0.00000000	         21.66320529	         38.38752834	         -5.94278685	          0.11851776	         -0.09999640	         -0.05815294	          0.00000000	          0.00000000	          0.00000000	          0.00000000	         -0.69784828	          0.00000000	
          1.06400000	          0.00000000	          0.00000000	          0.00000000	          0.00000000	          0.00000000	          0.00000000	         14.19617570	         24.22877887	         -2.36567665	          0.11535284	         -0.09999736	         -0.05732073	          0.00000000	          0.00000000	          0.00000000	          0.00000000	         -0.49870735	          0.00000000	
          1.06800000	          0.00000000	          0.00000000	          0.00000000	          0.00000000	          0.00000000	          0.00000000	          7.76801648	         12.83242863	          0.83138345	          0.10637404	         -0.09999832	         -0.05646011	          0.00000000	          0.00000000	          0.00000000	          0.00000000	         -0.30850103	          0.00000000	
          1.07200000	          0.00000000	          0.00000000	          0.00000000	          0.00000000	          0.00000000	          0.00000000	          0.00000000	          0.00000000	          0.00000000	          0.00000000	          0.00000000	          0.00000000	          0.00000000	          0.00000000	          0.00000000	          0.00000000	          0.00000000	          0.00000000	
          1.07600000	          0.00000000	          0.00000000	          0.00000000	          0.00000000	          0.00000000	          0.00000000	          0.00000000	          0.00000000	          0.00000000	          0.00000000	          0.00000000	          0.00000000	          0.00000000	          0.00000000	          0.00000000	          0.00000000	          0.00000000	          0.00000000	
          1.08000000	          0.00000000	          0.00000000	          0.00000000	          0.00000000	          0.00000000	          0.00000000	          0.00000000	          0.00000000	          0.00000000	          0.00000000	          0.00000000	          0.00000000	          0.00000000	          0.00000000	          0.00000000	          0.00000000	          0.00000000	          0.00000000	
          1.08400000	          0.00000000	          0.00000000	          0.00000000	          0.00000000	          0.00000000	          0.00000000	          0.00000000	          0.00000000	          0.00000000	          0.00000000	          0.00000000	          0.00000000	          0.00000000	          0.00000000	          0.00000000	          0.00000000	          0.00000000	          0.00000000	
          1.08800000	          0.00000000	          0.00000000	          0.00000000	          0.00000000	          0.00000000	          0.00000000	          0.00000000	          0.00000000	          0.00000000	          0.00000000	          0.00000000	          0.00000000	          0.00000000	          0.00000000	          0.00000000	          0.00000000	          0.00000000	          0.00000000	
          1.09200000	          0.00000000	          0.00000000	          0.00000000	          0.00000000	          0.00000000	          0.00000000	          0.00000000	          0.00000000	          0.00000000	          0.00000000	          0.00000000	          0.00000000	          0.00000000	          0.00000000	          0.00000000	          0.00000000	          0.00000000	          0.00000000	
          1.09600000	          0.00000000	          0.00000000	          0.00000000	          0.00000000	          0.00000000	          0.00000000	          0.00000000	          0.00000000	          0.00000000	          0.00000000	          0.00000000	          0.00000000	          0.00000000	          0.00000000	          0.00000000	          0.00000000	          0.00000000	          0.00000000	
